<?xml version="1.0" encoding="iso-8859-1"?>
<!-- Uploaded to: SVG Repo, www.svgrepo.com, Generator: SVG Repo Mixer Tools -->
<!DOCTYPE svg PUBLIC "-//W3C//DTD SVG 1.1//EN" "http://www.w3.org/Graphics/SVG/1.1/DTD/svg11.dtd">
<svg fill="#ffffff" version="1.1" id="Capa_1" xmlns="http://www.w3.org/2000/svg" xmlns:xlink="http://www.w3.org/1999/xlink" 
	 width="800px" height="800px" viewBox="0 0 50.354 50.354"
	 xml:space="preserve">
<g>
	<g>
		<path d="M18.652,22.268h13.625c0.552,0,1-0.447,1-1c0-0.552-0.448-1-1-1H18.652c-0.552,0-1,0.448-1,1
			C17.652,21.82,18.099,22.268,18.652,22.268z"/>
		<path d="M18.652,15.268h9.625h4c0.552,0,1-0.447,1-1c0-0.552-0.448-1-1-1h-4h-9.625c-0.552,0-1,0.448-1,1
			C17.652,14.82,18.099,15.268,18.652,15.268z"/>
		<path d="M0.377,49.942c0.048,0.045,0.107,0.067,0.162,0.102c-0.06-0.037-0.124-0.068-0.173-0.117
			C0.37,49.932,0.373,49.938,0.377,49.942z"/>
		<path d="M50.277,21.268L50.277,21.268v-3.087c0-0.001,0-0.003,0-0.004c0-0.004,0-0.011,0-0.011v-0.728v-0.268l-9.942-6.547
			l-2.028-1.391l-4.029-2.805V6.268h0.01l-8.671-6.039c-0.389-0.363-0.94-0.268-1.325,0.103l-8.11,5.936h-5.903v4.101
			c0,0-9.938,7.091-9.933,7.09c-0.002,0.001,0.023,0.002,0.021,0.004c-0.048,0.048-0.083,0.109-0.12,0.165
			c-0.036,0.055-0.085,0.207-0.11,0.266c-0.034,0.086-0.042,0.374-0.052,0.374H0.077c-0.004,0,0.031,31.153,0.031,31.153
			l0.043,0.062c0,0.035-0.003,0.081,0.011,0.113c0.021,0.048,0.048,0.091,0.077,0.135c0.042,0.065,0.073,0.136,0.131,0.191
			c0.05,0.048,0.111,0.081,0.17,0.118c0.048,0.029,0.091,0.069,0.143,0.091c0.054,0.021,48.983,0.222,48.983,0.222
			s0.61-0.062,0.61-0.404c0-0.001,0-0.005,0-0.006v-2.588V21.268z M40.277,13.042l7.545,5.209l-7.545,7.441V13.042z M25.048,2.523
			l5.466,3.744H28.39h-8.652L25.048,2.523z M12.277,11.403V8.938v-0.67h1.109h3.516H28.39h3.175h2.005l4.707,3.403v15.978
			l-4.692,4.753c-2.643-2.519-4.986-4.768-6.541-6.216c-0.989-0.921-1.665-1.324-2.293-1.35c-1.099-0.038-2.44,1.104-2.699,1.336
			c-1.431,1.276-3.503,3.251-5.739,5.511l-4.035-3.954V11.403z M10.277,12.813v12.958L2.68,18.241L10.277,12.813z M2.277,46.354
			V20.546L14.884,33.14c-0.003,0.003,0.022,0.006,0.02,0.009l0.043,0.083c-4.771,4.87-10.67,10.553-12.67,13.437V46.354z
			 M3.277,48.268v0.085l0.035-0.012c2.659-3.004,18.631-19.413,20.048-20.676c0.428-0.381,0.859-0.81,1.292-0.818
			c0.441,0.025,0.674,0.279,1.292,0.856c4.714,4.39,16.698,15.564,21.297,20.564H3.277z M48.277,46.858
			c-2-2.651-8.185-8.09-13.271-12.94c0,0,4.821-4.841,4.909-4.885l8.361-8.487V46.858z"/>
	</g>
</g>
</svg>